<svg width="34" height="36" viewBox="0 0 34 36" fill="none" xmlns="http://www.w3.org/2000/svg">
<path d="M5.49913 35.0625C4.762 34.8795 4.06126 34.6325 3.50614 34.0927C2.38679 33.0039 2.02277 31.6864 2.51419 30.2134C3.01472 28.7312 4.10676 27.8986 5.67204 27.7156C5.89045 27.6881 6.09976 27.6881 6.31817 27.6881C12.0605 27.6881 17.8029 27.6881 23.5543 27.6881C23.7273 27.6881 23.9002 27.6881 24.064 27.6698C24.6737 27.6058 25.1287 27.1026 25.1196 26.4896C25.1196 25.8674 24.6282 25.3551 24.0094 25.3276C23.882 25.3276 23.7637 25.3276 23.6363 25.3276C17.5663 25.3276 11.4872 25.3276 5.41722 25.3276C4.8166 25.3276 4.63459 25.1995 4.43438 24.6414C2.97831 20.57 1.54955 16.4894 0.0752813 12.4179C-0.17953 11.7226 0.239089 11.2285 0.93072 11.2377C2.93281 11.2743 4.9349 11.2377 6.93699 11.256C7.1645 11.256 7.34651 11.2011 7.52852 11.0547C12.2698 7.48645 17.0203 3.91822 21.7707 0.340833C22.2985 -0.0525872 22.6079 -0.0983339 22.9264 0.166996C23.2449 0.432327 23.254 0.752553 22.9628 1.33811C21.7616 3.75353 20.5694 6.1781 19.3682 8.59352C19.3136 8.70331 19.2317 8.80395 19.2317 8.95949C20.2782 8.95949 21.3248 8.95949 22.3622 8.95949C22.6261 8.95949 22.89 8.95949 23.1448 8.95949C23.5089 8.95949 23.8001 9.15163 23.882 9.45356C23.9821 9.80123 23.8729 10.0757 23.5817 10.2953C23.1994 10.5789 22.8263 10.8717 22.4441 11.1553C22.5169 11.2743 22.617 11.2285 22.6989 11.2285C23.8274 11.2285 24.9467 11.2285 26.0752 11.2285C26.3027 11.2285 26.4119 11.1645 26.5029 10.9449C26.8123 10.1581 27.1399 9.38951 27.4584 8.60267C27.6131 8.20925 27.877 8.03541 28.2957 8.04456C29.8518 8.05371 31.408 8.04456 32.9733 8.04456C33.4647 8.04456 33.8014 8.33734 33.8014 8.75821C33.8014 9.17908 33.4647 9.481 32.9733 9.481C31.6446 9.481 30.316 9.481 28.9782 9.481C28.7416 9.481 28.6233 9.54505 28.5323 9.77378C26.6576 14.3576 24.7738 18.9414 22.8809 23.5161C22.7444 23.8454 22.8445 23.8637 23.1266 23.8637C23.5999 23.8637 24.0822 23.8088 24.5554 23.9278C25.8113 24.2389 26.6394 25.3551 26.5666 26.6634C26.5029 27.8894 25.5473 28.9142 24.3188 29.0971C24.1914 29.1154 24.0731 29.1337 23.9457 29.152C23.9093 29.2801 24.0094 29.3442 24.064 29.4174C25.429 31.6407 24.1368 34.5227 21.5796 34.9802C21.5159 34.9893 21.4522 35.0168 21.3885 35.0442H20.4966C20.442 35.0259 20.3965 34.9985 20.3419 34.9893C17.7301 34.5044 16.4651 31.6772 17.8393 29.3991C17.8848 29.3259 17.9758 29.271 17.9394 29.1795H8.92999C8.99369 29.271 9.03009 29.3259 9.06649 29.3899C10.2768 31.3296 9.50331 33.8456 7.41022 34.7514C7.1008 34.8887 6.76409 34.9527 6.44557 35.0534H5.49003L5.49913 35.0625ZM13.4438 23.8546C15.9191 23.8546 18.4035 23.8546 20.8788 23.8546C21.0972 23.8546 21.2246 23.7997 21.3156 23.5801C22.7626 20.0393 24.2187 16.4985 25.6838 12.9669C25.7931 12.7016 25.7202 12.6741 25.4745 12.6741C23.9184 12.6741 22.3622 12.6833 20.7969 12.6741C20.533 12.6741 20.3237 12.7473 20.1144 12.9028C17.9758 14.5223 15.8281 16.1417 13.6804 17.7611C12.1333 18.9231 10.5954 20.0942 9.04829 21.2562C8.67517 21.5307 8.28386 21.5032 8.01084 21.1921C7.75603 20.8994 7.81973 20.5883 7.97444 20.2681C9.1666 17.8709 10.3496 15.4738 11.5327 13.0675C11.654 12.8236 11.5752 12.7016 11.2961 12.7016C8.24745 12.7016 5.19881 12.7016 2.15018 12.7016C1.74066 12.7016 1.74066 12.7016 1.87716 13.0858C3.11482 16.5626 4.35248 20.0393 5.57193 23.5161C5.66294 23.7814 5.79034 23.8546 6.05425 23.8546C8.51137 23.8454 10.9685 23.8546 13.4256 23.8546H13.4438ZM10.65 18.182L10.7046 18.2186C14.1263 15.6385 17.5572 13.0584 20.9789 10.4783C20.0325 10.4051 19.1225 10.4051 18.2124 10.4051C17.4116 10.4051 17.1022 9.91102 17.4662 9.18822C18.3853 7.33091 19.2954 5.4736 20.2145 3.60714C20.2691 3.4882 20.3601 3.37841 20.3692 3.19542C16.9202 5.79383 13.4893 8.37393 10.0675 10.954C11.0049 11.0181 11.9149 11.0181 12.8159 11.0181C13.6076 11.0181 13.9352 11.5305 13.5803 12.2349C13.2709 12.8663 12.9524 13.4976 12.643 14.138C11.9786 15.483 11.3143 16.8279 10.65 18.1729V18.182ZM5.98145 29.1612C4.75289 29.1612 3.77915 30.1493 3.78825 31.3845C3.78825 32.6196 4.7802 33.6078 5.99965 33.6078C7.22821 33.6078 8.24745 32.5739 8.22015 31.357C8.20195 30.131 7.21001 29.152 5.98145 29.1612ZM20.9698 29.1612C19.7322 29.1612 18.7493 30.1219 18.7402 31.357C18.7402 32.6013 19.7231 33.6169 20.9516 33.6078C22.162 33.6078 23.163 32.6013 23.1721 31.3845C23.1721 30.1676 22.1802 29.1612 20.9607 29.1612H20.9698Z" fill="white"/>
</svg>
