<svg width="35" height="36" viewBox="0 0 35 36" fill="none" xmlns="http://www.w3.org/2000/svg">
<path d="M6.09843 35.0625C5.3613 34.8795 4.66057 34.6325 4.10544 34.0927C2.98609 33.0039 2.62207 31.6864 3.1135 30.2134C3.61402 28.7312 4.70607 27.8986 6.27134 27.7156C6.48975 27.6881 6.69906 27.6881 6.91747 27.6881C12.6598 27.6881 18.4022 27.6881 24.1537 27.6881C24.3266 27.6881 24.4995 27.6881 24.6633 27.6698C25.273 27.6058 25.728 27.1026 25.7189 26.4896C25.7189 25.8674 25.2275 25.3551 24.6087 25.3276C24.4813 25.3276 24.363 25.3276 24.2356 25.3276C18.1656 25.3276 12.0865 25.3276 6.01653 25.3276C5.4159 25.3276 5.23389 25.1995 5.03368 24.6414C3.57762 20.57 2.14885 16.4894 0.674586 12.4179C0.419774 11.7226 0.838393 11.2285 1.53002 11.2377C3.53212 11.2743 5.53421 11.2377 7.5363 11.256C7.76381 11.256 7.94582 11.2011 8.12782 11.0547C12.8691 7.48645 17.6196 3.91822 22.37 0.340833C22.8978 -0.0525872 23.2072 -0.0983339 23.5257 0.166996C23.8442 0.432327 23.8533 0.752553 23.5621 1.33811C22.3609 3.75353 21.1687 6.1781 19.9675 8.59352C19.9129 8.70331 19.831 8.80395 19.831 8.95949C20.8775 8.95949 21.9241 8.95949 22.9615 8.95949C23.2254 8.95949 23.4893 8.95949 23.7441 8.95949C24.1082 8.95949 24.3994 9.15163 24.4813 9.45356C24.5814 9.80123 24.4722 10.0757 24.181 10.2953C23.7987 10.5789 23.4256 10.8717 23.0434 11.1553C23.1162 11.2743 23.2163 11.2285 23.2982 11.2285C24.4267 11.2285 25.546 11.2285 26.6745 11.2285C26.902 11.2285 27.0112 11.1645 27.1022 10.9449C27.4116 10.1581 27.7392 9.38951 28.0577 8.60267C28.2124 8.20925 28.4764 8.03541 28.895 8.04456C30.4511 8.05371 32.0073 8.04456 33.5726 8.04456C34.064 8.04456 34.4007 8.33734 34.4007 8.75821C34.4007 9.17908 34.064 9.481 33.5726 9.481C32.2439 9.481 30.9153 9.481 29.5775 9.481C29.3409 9.481 29.2226 9.54505 29.1316 9.77378C27.2569 14.3576 25.3731 18.9414 23.4802 23.5161C23.3437 23.8454 23.4438 23.8637 23.7259 23.8637C24.1992 23.8637 24.6815 23.8088 25.1547 23.9278C26.4106 24.2389 27.2387 25.3551 27.1659 26.6634C27.1022 27.8894 26.1466 28.9142 24.9181 29.0971C24.7907 29.1154 24.6724 29.1337 24.545 29.152C24.5086 29.2801 24.6087 29.3442 24.6633 29.4174C26.0283 31.6407 24.7361 34.5227 22.1789 34.9802C22.1152 34.9893 22.0515 35.0168 21.9878 35.0442H21.0959C21.0413 35.0259 20.9958 34.9985 20.9412 34.9893C18.3294 34.5044 17.0644 31.6772 18.4386 29.3991C18.4841 29.3259 18.5751 29.271 18.5387 29.1795H9.52929C9.59299 29.271 9.62939 29.3259 9.6658 29.3899C10.8762 31.3296 10.1026 33.8456 8.00952 34.7514C7.70011 34.8887 7.36339 34.9527 7.04488 35.0534H6.08933L6.09843 35.0625ZM14.0431 23.8546C16.5184 23.8546 19.0028 23.8546 21.4781 23.8546C21.6965 23.8546 21.8239 23.7997 21.915 23.5801C23.3619 20.0393 24.818 16.4985 26.2832 12.9669C26.3924 12.7016 26.3196 12.6741 26.0738 12.6741C24.5177 12.6741 22.9615 12.6833 21.3962 12.6741C21.1323 12.6741 20.923 12.7473 20.7137 12.9028C18.5751 14.5223 16.4274 16.1417 14.2797 17.7611C12.7326 18.9231 11.1947 20.0942 9.64759 21.2562C9.27448 21.5307 8.88316 21.5032 8.61015 21.1921C8.35534 20.8994 8.41904 20.5883 8.57375 20.2681C9.7659 17.8709 10.949 15.4738 12.132 13.0675C12.2533 12.8236 12.1745 12.7016 11.8954 12.7016C8.84676 12.7016 5.79812 12.7016 2.74948 12.7016C2.33996 12.7016 2.33996 12.7016 2.47647 13.0858C3.71412 16.5626 4.95178 20.0393 6.17124 23.5161C6.26224 23.7814 6.38965 23.8546 6.65356 23.8546C9.11067 23.8454 11.5678 23.8546 14.0249 23.8546H14.0431ZM11.2493 18.182L11.3039 18.2186C14.7256 15.6385 18.1565 13.0584 21.5782 10.4783C20.6318 10.4051 19.7218 10.4051 18.8117 10.4051C18.0109 10.4051 17.7015 9.91102 18.0655 9.18822C18.9846 7.33091 19.8947 5.4736 20.8138 3.60714C20.8684 3.4882 20.9594 3.37841 20.9685 3.19542C17.5195 5.79383 14.0886 8.37393 10.6668 10.954C11.6042 11.0181 12.5142 11.0181 13.4152 11.0181C14.2069 11.0181 14.5345 11.5305 14.1796 12.2349C13.8702 12.8663 13.5517 13.4976 13.2423 14.138C12.5779 15.483 11.9136 16.8279 11.2493 18.1729V18.182ZM6.58075 29.1612C5.3522 29.1612 4.37845 30.1493 4.38755 31.3845C4.38755 32.6196 5.3795 33.6078 6.59896 33.6078C7.82751 33.6078 8.84676 32.5739 8.81946 31.357C8.80126 30.131 7.80931 29.152 6.58075 29.1612ZM21.5691 29.1612C20.3315 29.1612 19.3486 30.1219 19.3395 31.357C19.3395 32.6013 20.3224 33.6169 21.5509 33.6078C22.7613 33.6078 23.7623 32.6013 23.7714 31.3845C23.7714 30.1676 22.7795 29.1612 21.56 29.1612H21.5691Z" fill="#F07000"/>
</svg>
