<svg width="20" height="21" viewBox="0 0 20 21" fill="none" xmlns="http://www.w3.org/2000/svg">
<g clip-path="url(#clip0_398_31752)">
<path d="M2.00195 10.4801C2.00195 8.0491 2.00195 5.62383 2.00195 3.19286C2.00195 2.00868 2.62436 1.05793 3.66171 0.630942C3.87464 0.545545 4.09303 0.5 4.3278 0.5C6.87203 0.505693 9.42172 0.505693 11.966 0.5C12.1789 0.5 12.3263 0.574011 12.4682 0.727726C13.9751 2.38443 15.4875 4.04113 17.0053 5.69214C17.1636 5.86863 17.24 6.0565 17.24 6.30131C17.24 10.1328 17.24 13.9643 17.24 17.7958C17.24 19.3671 16.1536 20.4943 14.6358 20.5C11.2999 20.5 7.95851 20.5 4.62262 20.5C3.10482 20.5 2.01287 19.3557 2.01287 17.7673C2.01287 15.342 2.01287 12.911 2.01287 10.4801H2.00195ZM2.93011 10.4801C2.93011 12.8997 2.93011 15.3192 2.93011 17.7331C2.93011 18.8034 3.59073 19.5208 4.60624 19.5208C7.95305 19.5265 11.2999 19.5265 14.6467 19.5208C15.6403 19.5208 16.301 18.8148 16.301 17.773C16.301 14.1294 16.301 10.4915 16.3064 6.84785C16.3064 6.64859 16.2573 6.59166 16.0662 6.59166C15.2745 6.60305 14.4829 6.59735 13.6912 6.59166C12.4246 6.58597 11.5729 5.69784 11.5674 4.37703C11.5674 3.48321 11.5619 2.59508 11.5674 1.70125C11.5674 1.47353 11.5019 1.4166 11.2889 1.4166C9.07776 1.42229 6.86657 1.4166 4.66084 1.4166C4.48067 1.4166 4.29504 1.42229 4.12033 1.47922C3.37234 1.71833 2.93011 2.33888 2.93011 3.18147C2.93011 5.60675 2.93011 8.03772 2.93011 10.463V10.4801ZM12.5611 2.2421C12.5392 2.25349 12.5174 2.26487 12.4955 2.27626C12.5174 3.06761 12.4573 3.86465 12.5283 4.65599C12.572 5.13991 12.9159 5.54981 13.3746 5.60675C14.1116 5.69784 14.8541 5.62952 15.6676 5.64091C14.603 4.47381 13.582 3.35796 12.5665 2.24779L12.5611 2.2421Z" fill="white"/>
<path d="M9.01526 12.8829V12.5014C9.01526 10.9871 9.01526 9.467 9.01526 7.95262C9.01526 7.88431 9.01526 7.82168 9.01526 7.75336C9.01526 7.37192 9.18997 7.13851 9.47387 7.13281C9.75232 7.13281 9.94341 7.36623 9.94341 7.74198C9.94341 8.43654 9.94341 9.12541 9.94341 9.81997C9.94341 10.8163 9.94341 11.8069 9.94341 12.8032C10.0635 12.8316 10.0908 12.7292 10.14 12.6779C10.7023 12.0574 11.2592 11.4311 11.8161 10.8106C11.9635 10.6398 12.1382 10.5658 12.3511 10.6455C12.5313 10.7081 12.6296 10.8561 12.646 11.0497C12.6624 11.2091 12.6023 11.3457 12.4986 11.4596C11.6195 12.4445 10.7405 13.4294 9.85605 14.4086C9.59399 14.699 9.3483 14.6933 9.08077 14.3973C8.20176 13.4237 7.33366 12.4445 6.4601 11.4653C6.24172 11.2205 6.24172 10.9301 6.44919 10.7309C6.64028 10.543 6.9078 10.5601 7.12619 10.7992C7.67762 11.4027 8.21814 12.0175 8.76411 12.6267C8.82417 12.695 8.88968 12.7576 9.00434 12.8829H9.01526Z" fill="white"/>
<path d="M9.48476 16.2057C10.6859 16.2057 11.887 16.2057 13.0882 16.2057C13.181 16.2057 13.2683 16.2057 13.3612 16.2113C13.5905 16.2398 13.727 16.3878 13.7597 16.6156C13.7925 16.849 13.6887 17.0198 13.4813 17.1166C13.3721 17.1678 13.252 17.1678 13.1319 17.1678C10.7023 17.1678 8.27816 17.1678 5.84858 17.1678C5.75576 17.1678 5.66295 17.1678 5.57559 17.145C5.32991 17.0881 5.17157 16.8604 5.19341 16.6326C5.22071 16.3992 5.4118 16.2113 5.66295 16.2057C6.09973 16.2 6.53651 16.2057 6.97328 16.2057C7.80862 16.2057 8.64396 16.2057 9.48476 16.2057Z" fill="white"/>
</g>
<defs>
<clipPath id="clip0_398_31752">
<rect width="20" height="20" fill="white" transform="translate(0 0.5)"/>
</clipPath>
</defs>
</svg>
