<svg width="1120" height="573" viewBox="0 0 1120 573" fill="none" xmlns="http://www.w3.org/2000/svg">
<path d="M686 399.915V335.085C686 331.651 684.166 328.42 681.108 326.703L624.341 294.288C621.284 292.571 617.615 292.571 614.557 294.288L557.892 326.703C554.834 328.42 553 331.651 553 335.085V399.915C553 403.349 554.834 406.58 557.892 408.297L614.557 440.712C617.615 442.429 621.284 442.429 624.341 440.712L681.006 408.297C684.064 406.58 685.898 403.349 685.898 399.915H686Z" fill="url(#paint0_radial_814_19179)" stroke="#E5530A" stroke-width="1.84282" stroke-miterlimit="10"/>
<g filter="url(#filter0_dd_814_19179)">
<path d="M621.376 327V359.822H635L614.684 406V372.939H601L621.376 327Z" fill="#FF9F31"/>
</g>
<path d="M687 369.5H1119.5" stroke="#FF7031"/>
<g filter="url(#filter1_d_814_19179)">
<circle cx="775.5" cy="369.5" r="2.5" fill="#FF7031"/>
</g>
<g filter="url(#filter2_d_814_19179)">
<circle cx="870.5" cy="369.5" r="2.5" fill="#FF7031"/>
</g>
<g filter="url(#filter3_d_814_19179)">
<circle cx="965.5" cy="369.5" r="2.5" fill="#FF7031"/>
</g>
<path d="M243.646 495.146C243.451 495.342 243.451 495.658 243.646 495.854C243.842 496.049 244.158 496.049 244.353 495.854L244 495.5L243.646 495.146ZM287.79 460.407C288.015 460.246 288.067 459.934 287.907 459.709C287.746 459.485 287.434 459.433 287.209 459.593L287.5 460L287.79 460.407ZM224.654 500.139C224.454 500.33 224.448 500.647 224.639 500.846C224.83 501.045 225.146 501.052 225.346 500.861L225 500.5L224.654 500.139ZM259.814 470.889C260.029 470.715 260.062 470.4 259.888 470.185C259.715 469.971 259.4 469.938 259.185 470.111L259.5 470.5L259.814 470.889ZM62.0341 -112L61.5342 -112.01C56.3397 149.852 264.325 366.345 526.082 371.542L526.092 371.042L526.102 370.542C264.897 365.357 57.3504 149.32 62.5339 -111.99L62.0341 -112ZM62.5712 855.844L63.071 855.834C57.8875 593.662 265.435 376.915 526.639 371.712L526.629 371.212L526.619 370.713C264.86 375.926 56.8768 593.133 62.0713 855.854L62.5712 855.844ZM-260.655 -112L-261.155 -112.01C-266.35 149.852 -58.3649 366.345 203.392 371.542L203.402 371.042L203.412 370.542C-57.7925 365.357 -265.339 149.32 -260.155 -111.99L-260.655 -112ZM-260.119 855.844L-259.619 855.834C-264.802 593.662 -57.2544 376.915 203.949 371.712L203.939 371.212L203.929 370.713C-57.8299 375.926 -265.813 593.133 -260.619 855.854L-260.119 855.844ZM-101.196 -112L-101.696 -112.01C-106.89 149.852 101.095 366.345 362.852 371.542L362.862 371.042L362.872 370.542C101.667 365.357 -105.88 149.32 -100.696 -111.99L-101.196 -112ZM-100.659 855.844L-100.159 855.834C-105.343 593.662 102.205 376.915 363.408 371.712L363.398 371.212L363.388 370.713C101.63 375.926 -106.354 593.133 -101.159 855.854L-100.659 855.844ZM-423.886 -112L-424.386 -112.01C-429.581 149.852 -221.596 366.345 40.1614 371.542L40.1713 371.042L40.1813 370.542C-221.023 365.357 -428.57 149.32 -423.386 -111.99L-423.886 -112ZM-423.349 855.844L-422.849 855.834C-428.033 593.662 -220.485 376.915 40.7184 371.712L40.7084 371.212L40.6985 370.713C-221.06 375.926 -429.044 593.133 -423.849 855.854L-423.349 855.844ZM75.5585 -112L75.0586 -112.01C69.8641 149.852 277.849 366.345 539.606 371.542L539.616 371.042L539.626 370.542C278.421 365.357 70.8748 149.32 76.0583 -111.99L75.5585 -112ZM76.0951 855.844L76.595 855.834C73.5803 703.361 142.518 566.252 252.118 477.183L251.803 476.795L251.487 476.407C141.658 565.662 72.5742 703.061 75.5952 855.854L76.0951 855.844ZM251.803 476.795L252.118 477.183C330.97 413.102 430.869 373.889 540.163 371.712L540.153 371.212L540.143 370.713C430.618 372.894 330.506 412.191 251.487 476.407L251.803 476.795ZM-247.131 -112L-247.631 -112.01C-252.826 149.852 -44.841 366.345 216.916 371.542L216.926 371.042L216.936 370.542C-44.2686 365.357 -251.815 149.32 -246.632 -111.99L-247.131 -112ZM-246.594 855.844L-246.094 855.834C-251.278 593.662 -43.7299 376.915 217.473 371.712L217.463 371.212L217.453 370.713C-44.3055 375.926 -252.289 593.133 -247.094 855.854L-246.594 855.844ZM-87.6715 -112L-88.1714 -112.01C-93.3659 149.852 114.619 366.345 376.376 371.542L376.386 371.042L376.396 370.542C115.191 365.357 -92.3552 149.32 -87.1716 -111.99L-87.6715 -112ZM-87.1349 855.844L-86.6349 855.834C-91.8186 593.662 115.729 376.915 376.933 371.712L376.923 371.212L376.913 370.713C115.154 375.926 -92.8293 593.133 -87.6348 855.854L-87.1349 855.844ZM-410.362 -112L-410.862 -112.01C-416.056 149.852 -208.071 366.345 53.6858 371.542L53.6957 371.042L53.7057 370.542C-207.499 365.357 -415.046 149.32 -409.862 -111.99L-410.362 -112ZM-409.825 855.844L-409.325 855.834C-414.509 593.662 -206.96 376.915 54.2428 371.712L54.2328 371.212L54.2229 370.713C-207.536 375.926 -415.519 593.133 -410.325 855.854L-409.825 855.844ZM89.0829 -112L88.583 -112.01C83.3885 149.852 291.373 366.345 553.131 371.542L553.141 371.042L553.151 370.542C291.946 365.357 84.3992 149.32 89.5828 -111.99L89.0829 -112ZM89.62 855.844L90.1199 855.834C84.9363 593.662 292.484 376.915 553.688 371.712L553.678 371.212L553.668 370.713C291.909 375.926 83.9257 593.133 89.1201 855.854L89.62 855.844ZM244 495.5L244.353 495.854C255.323 484.884 277.296 467.903 287.79 460.407L287.5 460L287.209 459.593C276.704 467.097 254.676 484.116 243.646 495.146L244 495.5ZM225 500.5L225.346 500.861C234.491 492.097 243.637 484.204 252.122 477.18L251.803 476.795L251.484 476.41C242.988 483.443 233.822 491.353 224.654 500.139L225 500.5ZM251.803 476.795L252.122 477.18C254.756 474.999 257.327 472.902 259.814 470.889L259.5 470.5L259.185 470.111C256.696 472.126 254.122 474.226 251.484 476.41L251.803 476.795ZM-233.607 -112L-234.107 -112.01C-239.301 149.852 -31.3166 366.345 230.441 371.542L230.451 371.042L230.461 370.542C-30.7442 365.357 -238.291 149.32 -233.107 -111.99L-233.607 -112ZM-233.07 855.844L-232.57 855.834C-237.754 593.662 -30.2061 376.915 230.997 371.712L230.987 371.212L230.977 370.713C-30.7815 375.926 -238.765 593.133 -233.57 855.854L-233.07 855.844ZM-74.1476 -112L-74.6475 -112.01C-79.842 149.852 128.143 366.345 389.9 371.542L389.91 371.042L389.92 370.542C128.715 365.357 -78.8312 149.32 -73.6476 -111.99L-74.1476 -112ZM-73.6104 855.844L-73.1105 855.834C-78.2942 593.662 129.254 376.915 390.457 371.712L390.447 371.212L390.437 370.713C128.678 375.926 -79.3048 593.133 -74.1104 855.854L-73.6104 855.844ZM-396.837 -112L-397.337 -112.01C-402.531 149.852 -194.547 366.345 67.2107 371.542L67.2206 371.042L67.2306 370.542C-193.974 365.357 -401.521 149.32 -396.337 -111.99L-396.837 -112ZM-396.3 855.844L-395.8 855.834C-400.984 593.662 -193.436 376.915 67.7672 371.712L67.7573 371.212L67.7473 370.713C-194.012 375.926 -401.995 593.133 -396.8 855.854L-396.3 855.844ZM48.5101 -112L48.0103 -112.01C42.8157 149.852 250.801 366.345 512.558 371.542L512.568 371.042L512.578 370.542C251.373 365.357 43.8265 149.32 49.01 -111.99L48.5101 -112ZM49.0468 855.844L49.5466 855.834C44.363 593.662 251.911 376.915 513.114 371.712L513.104 371.212L513.094 370.713C251.336 375.926 43.3524 593.133 48.5469 855.854L49.0468 855.844ZM-274.18 -112L-274.68 -112.01C-279.875 149.852 -71.8898 366.345 189.867 371.542L189.877 371.042L189.887 370.542C-71.3174 365.357 -278.864 149.32 -273.68 -111.99L-274.18 -112ZM-273.643 855.844L-273.143 855.834C-278.327 593.662 -70.7788 376.915 190.424 371.712L190.414 371.212L190.405 370.713C-71.3543 375.926 -279.338 593.133 -274.143 855.854L-273.643 855.844ZM-114.721 -112L-115.221 -112.01C-120.415 149.852 87.5696 366.345 349.327 371.542L349.337 371.042L349.347 370.542C88.142 365.357 -119.404 149.32 -114.221 -111.99L-114.721 -112ZM-114.184 855.844L-113.684 855.834C-118.867 593.662 88.6807 376.915 349.884 371.712L349.874 371.212L349.864 370.713C88.1052 375.926 -119.878 593.133 -114.684 855.854L-114.184 855.844ZM-437.41 -112L-437.91 -112.01C-443.105 149.852 -235.12 366.345 26.6375 371.542L26.6474 371.042L26.6573 370.542C-234.547 365.357 -442.094 149.32 -436.91 -111.99L-437.41 -112ZM-436.874 855.844L-436.374 855.834C-441.557 593.662 -234.009 376.915 27.194 371.712L27.184 371.212L27.1741 370.713C-234.585 375.926 -442.568 593.133 -437.374 855.854L-436.874 855.844ZM34.9857 -112L34.4858 -112.01C29.2913 149.852 237.276 366.345 499.034 371.542L499.043 371.042L499.053 370.542C237.849 365.357 30.3021 149.32 35.4856 -111.99L34.9857 -112ZM35.5223 855.844L36.0222 855.834C30.8386 593.662 238.387 376.915 499.59 371.712L499.58 371.212L499.57 370.713C237.811 375.926 29.828 593.133 35.0225 855.854L35.5223 855.844ZM-287.704 -112L-288.204 -112.01C-293.399 149.852 -85.4138 366.345 176.344 371.542L176.353 371.042L176.363 370.542C-84.8414 365.357 -292.388 149.32 -287.204 -111.99L-287.704 -112ZM-287.168 855.844L-286.668 855.834C-291.851 593.662 -84.3032 376.915 176.9 371.712L176.89 371.212L176.88 370.713C-84.8787 375.926 -292.862 593.133 -287.667 855.854L-287.168 855.844ZM-128.244 -112L-128.744 -112.01C-133.939 149.852 74.0462 366.345 335.803 371.542L335.813 371.042L335.823 370.542C74.6186 365.357 -132.928 149.32 -127.744 -111.99L-128.244 -112ZM-127.708 855.844L-127.208 855.834C-132.391 593.662 75.1567 376.915 336.36 371.712L336.35 371.212L336.34 370.713C74.5813 375.926 -133.402 593.133 -128.208 855.854L-127.708 855.844ZM-450.935 -112L-451.435 -112.01C-456.629 149.852 -248.644 366.345 13.113 371.542L13.123 371.042L13.1329 370.542C-248.072 365.357 -455.618 149.32 -450.435 -111.99L-450.935 -112ZM-450.398 855.844L-449.898 855.834C-455.082 593.662 -247.534 376.915 13.6696 371.712L13.6596 371.212L13.6497 370.713C-248.109 375.926 -456.092 593.133 -450.898 855.854L-450.398 855.844ZM21.4618 -112L20.9619 -112.01C15.7674 149.852 223.752 366.345 485.51 371.542L485.52 371.042L485.529 370.542C224.325 365.357 16.7781 149.32 21.9617 -111.99L21.4618 -112ZM21.9984 855.844L22.4983 855.834C17.3147 593.662 224.863 376.915 486.066 371.712L486.056 371.212L486.046 370.713C224.287 375.926 16.3041 593.133 21.4985 855.854L21.9984 855.844ZM-301.229 -112L-301.729 -112.01C-306.923 149.852 -98.9382 366.345 162.819 371.542L162.829 371.042L162.839 370.542C-98.3658 365.357 -305.912 149.32 -300.729 -111.99L-301.229 -112ZM-300.692 855.844L-300.192 855.834C-305.376 593.662 -97.8276 376.915 163.376 371.712L163.366 371.212L163.356 370.713C-98.4031 375.926 -306.386 593.133 -301.192 855.854L-300.692 855.844ZM-141.769 -112L-142.269 -112.01C-147.464 149.852 60.5213 366.345 322.279 371.542L322.289 371.042L322.298 370.542C61.0937 365.357 -146.453 149.32 -141.269 -111.99L-141.769 -112ZM-141.233 855.844L-140.733 855.834C-145.916 593.662 61.6318 376.915 322.835 371.712L322.825 371.212L322.815 370.713C61.0564 375.926 -146.927 593.133 -141.732 855.854L-141.233 855.844ZM-464.459 -112L-464.959 -112.01C-470.154 149.852 -262.169 366.345 -0.411377 371.542L-0.401428 371.042L-0.391479 370.542C-261.596 365.357 -469.143 149.32 -463.959 -111.99L-464.459 -112ZM-463.922 855.844L-463.423 855.834C-468.606 593.662 -261.058 376.915 0.145142 371.712L0.135193 371.212L0.125244 370.713C-261.634 375.926 -469.617 593.133 -464.422 855.854L-463.922 855.844ZM7.93689 -112L7.43701 -112.01C2.24249 149.852 210.227 366.345 471.985 371.542L471.995 371.042L472.005 370.542C210.8 365.357 3.25323 149.32 8.43677 -111.99L7.93689 -112ZM8.47351 855.844L8.97339 855.834C3.78979 593.662 211.338 376.915 472.541 371.712L472.531 371.212L472.521 370.713C210.762 375.926 2.77917 593.133 7.97363 855.854L8.47351 855.844ZM-314.753 -112L-315.253 -112.01C-320.447 149.852 -112.463 366.345 149.295 371.542L149.305 371.042L149.315 370.542C-111.89 365.357 -319.437 149.32 -314.253 -111.99L-314.753 -112ZM-314.216 855.844L-313.716 855.834C-318.9 593.662 -111.352 376.915 149.851 371.712L149.841 371.212L149.831 370.713C-111.928 375.926 -319.911 593.133 -314.716 855.854L-314.216 855.844ZM-155.293 -112L-155.793 -112.01C-160.987 149.852 46.9974 366.345 308.755 371.542L308.765 371.042L308.775 370.542C47.5698 365.357 -159.977 149.32 -154.793 -111.99L-155.293 -112ZM-154.756 855.844L-154.257 855.834C-159.44 593.662 48.1079 376.915 309.311 371.712L309.301 371.212L309.291 370.713C47.5325 375.926 -160.451 593.133 -155.256 855.854L-154.756 855.844ZM-477.983 -112L-478.483 -112.01C-483.677 149.852 -275.693 366.345 -13.9353 371.542L-13.9254 371.042L-13.9154 370.542C-275.12 365.357 -482.667 149.32 -477.483 -111.99L-477.983 -112ZM-477.446 855.844L-476.946 855.834C-482.13 593.662 -274.582 376.915 -13.3788 371.712L-13.3887 371.212L-13.3987 370.713C-275.158 375.926 -483.141 593.133 -477.946 855.854L-477.446 855.844ZM-5.58704 -112L-6.08691 -112.01C-11.2814 149.852 196.703 366.345 458.461 371.542L458.471 371.042L458.481 370.542C197.276 365.357 -10.2707 149.32 -5.08716 -111.99L-5.58704 -112ZM-5.05042 855.844L-4.55054 855.834C-9.73413 593.662 197.814 376.915 459.017 371.712L459.007 371.212L458.997 370.713C197.239 375.926 -10.7448 593.133 -5.55029 855.854L-5.05042 855.844ZM-328.277 -112L-328.777 -112.01C-333.971 149.852 -125.987 366.345 135.771 371.542L135.781 371.042L135.791 370.542C-125.414 365.357 -332.961 149.32 -327.777 -111.99L-328.277 -112ZM-327.74 855.844L-327.24 855.834C-332.424 593.662 -124.876 376.915 136.327 371.712L136.317 371.212L136.307 370.713C-125.451 375.926 -333.435 593.133 -328.24 855.854L-327.74 855.844ZM-168.817 -112L-169.317 -112.01C-174.512 149.852 33.473 366.345 295.23 371.542L295.24 371.042L295.25 370.542C34.0453 365.357 -173.501 149.32 -168.318 -111.99L-168.817 -112ZM-168.281 855.844L-167.781 855.834C-172.965 593.662 34.5835 376.915 295.787 371.712L295.777 371.212L295.767 370.713C34.0081 375.926 -173.975 593.133 -168.781 855.854L-168.281 855.844ZM-491.508 -112L-492.008 -112.01C-497.202 149.852 -289.217 366.345 -27.4602 371.542L-27.4503 371.042L-27.4403 370.542C-288.645 365.357 -496.192 149.32 -491.008 -111.99L-491.508 -112ZM-490.971 855.844L-490.471 855.834C-495.655 593.662 -288.107 376.915 -26.9037 371.712L-26.9136 371.212L-26.9236 370.713C-288.682 375.926 -496.666 593.133 -491.471 855.854L-490.971 855.844ZM-19.1115 -112L-19.6113 -112.01C-24.8058 149.852 183.179 366.345 444.936 371.542L444.946 371.042L444.956 370.542C183.751 365.357 -23.7951 149.32 -18.6116 -111.99L-19.1115 -112ZM-18.5748 855.844L-18.075 855.834C-23.2585 593.662 184.29 376.915 445.493 371.712L445.483 371.212L445.473 370.713C183.714 375.926 -24.2692 593.133 -19.0747 855.854L-18.5748 855.844ZM-341.802 -112L-342.302 -112.01C-347.496 149.852 -139.511 366.345 122.246 371.542L122.256 371.042L122.266 370.542C-138.939 365.357 -346.486 149.32 -341.302 -111.99L-341.802 -112ZM-341.265 855.844L-340.765 855.834C-345.949 593.662 -138.401 376.915 122.802 371.712L122.792 371.212L122.782 370.713C-138.976 375.926 -346.96 593.133 -341.765 855.854L-341.265 855.844ZM-182.342 -112L-182.842 -112.01C-188.036 149.852 19.9485 366.345 281.706 371.542L281.716 371.042L281.726 370.542C20.5209 365.357 -187.026 149.32 -181.842 -111.99L-182.342 -112ZM-181.805 855.844L-181.305 855.834C-186.489 593.662 21.0591 376.915 282.262 371.712L282.252 371.212L282.242 370.713C20.4836 375.926 -187.5 593.133 -182.305 855.854L-181.805 855.844ZM-505.032 -112L-505.532 -112.01C-510.726 149.852 -302.741 366.345 -40.9841 371.542L-40.9742 371.042L-40.9642 370.542C-302.169 365.357 -509.716 149.32 -504.532 -111.99L-505.032 -112ZM-504.495 855.844L-503.995 855.834C-509.178 593.662 -301.63 376.915 -40.4272 371.712L-40.4371 371.212L-40.4471 370.713C-302.206 375.926 -510.189 593.133 -504.995 855.854L-504.495 855.844ZM-32.6359 -112L-33.1357 -112.01C-38.3303 149.852 169.655 366.345 431.412 371.542L431.422 371.042L431.432 370.542C170.227 365.357 -37.3195 149.32 -32.136 -111.99L-32.6359 -112ZM-32.0992 855.844L-31.5994 855.834C-36.783 593.662 170.765 376.915 431.968 371.712L431.958 371.212L431.948 370.713C170.19 375.926 -37.7936 593.133 -32.5991 855.854L-32.0992 855.844ZM-355.326 -112L-355.826 -112.01C-361.02 149.852 -153.035 366.345 108.722 371.542L108.732 371.042L108.742 370.542C-152.463 365.357 -360.009 149.32 -354.826 -111.99L-355.326 -112ZM-354.789 855.844L-354.289 855.834C-359.472 593.662 -151.924 376.915 109.279 371.712L109.269 371.212L109.259 370.713C-152.5 375.926 -360.483 593.133 -355.289 855.854L-354.789 855.844ZM-195.866 -112L-196.366 -112.01C-201.56 149.852 6.42462 366.345 268.182 371.542L268.192 371.042L268.202 370.542C6.99701 365.357 -200.549 149.32 -195.366 -111.99L-195.866 -112ZM-195.329 855.844L-194.829 855.834C-200.013 593.662 7.53516 376.915 268.738 371.712L268.728 371.212L268.719 370.713C6.95972 375.926 -201.024 593.133 -195.829 855.854L-195.329 855.844ZM-518.556 -112L-519.056 -112.01C-524.251 149.852 -316.266 366.345 -54.5085 371.542L-54.4986 371.042L-54.4886 370.542C-315.693 365.357 -523.24 149.32 -518.056 -111.99L-518.556 -112ZM-518.02 855.844L-517.52 855.834C-522.703 593.662 -315.155 376.915 -53.9521 371.712L-53.962 371.212L-53.972 370.713C-315.731 375.926 -523.714 593.133 -518.52 855.854L-518.02 855.844ZM-46.1602 -112L-46.6602 -112.01C-51.8547 149.852 156.13 366.345 417.887 371.542L417.897 371.042L417.907 370.542C156.703 365.357 -50.8439 149.32 -45.6603 -111.99L-46.1602 -112ZM-45.6231 855.844L-45.1232 855.834C-50.3069 593.662 157.241 376.915 418.444 371.712L418.435 371.212L418.425 370.713C156.666 375.926 -51.3175 593.133 -46.123 855.854L-45.6231 855.844ZM-368.85 -112L-369.35 -112.01C-374.545 149.852 -166.56 366.345 95.1975 371.542L95.2075 371.042L95.2174 370.542C-165.987 365.357 -373.534 149.32 -368.35 -111.99L-368.85 -112ZM-368.314 855.844L-367.814 855.834C-372.997 593.662 -165.449 376.915 95.754 371.712L95.7441 371.212L95.7341 370.713C-166.025 375.926 -374.008 593.133 -368.813 855.854L-368.314 855.844ZM-209.391 -112L-209.891 -112.01C-215.085 149.852 -7.10028 366.345 254.657 371.542L254.667 371.042L254.677 370.542C-6.52789 365.357 -214.074 149.32 -208.891 -111.99L-209.391 -112ZM-208.854 855.844L-208.354 855.834C-213.537 593.662 -5.98926 376.915 255.214 371.712L255.204 371.212L255.194 370.713C-6.5647 375.926 -214.548 593.133 -209.354 855.854L-208.854 855.844ZM-532.081 -112L-532.581 -112.01C-537.775 149.852 -329.79 366.345 -68.0329 371.542L-68.023 371.042L-68.0131 370.542C-329.218 365.357 -536.764 149.32 -531.581 -111.99L-532.081 -112ZM-531.544 855.844L-531.044 855.834C-536.227 593.662 -328.679 376.915 -67.476 371.712L-67.4859 371.212L-67.4959 370.713C-329.255 375.926 -537.238 593.133 -532.043 855.854L-531.544 855.844ZM-59.6842 -112L-60.1841 -112.01C-65.3786 149.852 142.606 366.345 404.364 371.542L404.373 371.042L404.383 370.542C143.179 365.357 -64.3679 149.32 -59.1843 -111.99L-59.6842 -112ZM-59.1476 855.844L-58.6476 855.834C-63.8313 593.662 143.717 376.915 404.92 371.712L404.91 371.212L404.9 370.713C143.141 375.926 -64.8419 593.133 -59.6475 855.854L-59.1476 855.844ZM-382.375 -112L-382.875 -112.01C-388.069 149.852 -180.084 366.345 81.6731 371.542L81.683 371.042L81.693 370.542C-179.512 365.357 -387.058 149.32 -381.875 -111.99L-382.375 -112ZM-381.837 855.844L-381.338 855.834C-386.521 593.662 -178.973 376.915 82.2301 371.712L82.2202 371.212L82.2102 370.713C-179.549 375.926 -387.532 593.133 -382.337 855.854L-381.837 855.844ZM-222.915 -112L-223.415 -112.01C-228.609 149.852 -20.6242 366.345 241.133 371.542L241.143 371.042L241.153 370.542C-20.0518 365.357 -227.598 149.32 -222.415 -111.99L-222.915 -112ZM-222.378 855.844L-221.878 855.834C-227.061 593.662 -19.5132 376.915 241.69 371.712L241.68 371.212L241.67 370.713C-20.0886 375.926 -228.072 593.133 -222.877 855.854L-222.378 855.844ZM-545.605 -112L-546.104 -112.01C-551.299 149.852 -343.314 366.345 -81.5568 371.542L-81.5469 371.042L-81.537 370.542C-342.742 365.357 -550.288 149.32 -545.105 -111.99L-545.605 -112ZM-545.068 855.844L-544.568 855.834C-549.752 593.662 -342.204 376.915 -81.0004 371.712L-81.0103 371.212L-81.0203 370.713C-342.779 375.926 -550.762 593.133 -545.568 855.854L-545.068 855.844Z" fill="url(#paint1_linear_814_19179)"/>
<path d="M552.537 371.641L-414.463 371.641" stroke="url(#paint2_linear_814_19179)"/>
<g filter="url(#filter4_d_814_19179)">
<path d="M307.728 430.445C307.974 430.319 308.071 430.018 307.945 429.772C307.819 429.526 307.518 429.429 307.272 429.555L307.5 430L307.728 430.445ZM276 449L276.274 449.418C289.27 440.921 300.585 434.099 307.728 430.445L307.5 430L307.272 429.555C300.081 433.234 288.73 440.079 275.726 448.582L276 449Z" fill="#FF9100"/>
</g>
<g filter="url(#filter5_d_814_19179)">
<path d="M340.321 340.967C340.578 341.066 340.868 340.937 340.967 340.679C341.066 340.422 340.937 340.132 340.679 340.033L340.5 340.5L340.321 340.967ZM313 329L312.795 329.456C327.306 335.961 333.815 338.464 340.321 340.967L340.5 340.5L340.679 340.033C334.185 337.536 327.694 335.039 313.205 328.544L313 329Z" fill="#FF9100"/>
</g>
<g filter="url(#filter6_d_814_19179)">
<path d="M221.5 330.5C234 336 245.5 340.5 251.5 342.5" stroke="#FF9100" stroke-linecap="round"/>
</g>
<defs>
<filter id="filter0_dd_814_19179" x="580.1" y="309.021" width="71.8" height="116.8" filterUnits="userSpaceOnUse" color-interpolation-filters="sRGB">
<feFlood flood-opacity="0" result="BackgroundImageFix"/>
<feColorMatrix in="SourceAlpha" type="matrix" values="0 0 0 0 0 0 0 0 0 0 0 0 0 0 0 0 0 0 127 0" result="hardAlpha"/>
<feOffset dx="-2" dy="0.921408"/>
<feGaussianBlur stdDeviation="9.45"/>
<feColorMatrix type="matrix" values="0 0 0 0 1 0 0 0 0 0.439216 0 0 0 0 0.192157 0 0 0 1 0"/>
<feBlend mode="normal" in2="BackgroundImageFix" result="effect1_dropShadow_814_19179"/>
<feColorMatrix in="SourceAlpha" type="matrix" values="0 0 0 0 0 0 0 0 0 0 0 0 0 0 0 0 0 0 127 0" result="hardAlpha"/>
<feOffset/>
<feGaussianBlur stdDeviation="5.3"/>
<feComposite in2="hardAlpha" operator="out"/>
<feColorMatrix type="matrix" values="0 0 0 0 0.976471 0 0 0 0 0.603922 0 0 0 0 0.109804 0 0 0 1 0"/>
<feBlend mode="normal" in2="effect1_dropShadow_814_19179" result="effect2_dropShadow_814_19179"/>
<feBlend mode="normal" in="SourceGraphic" in2="effect2_dropShadow_814_19179" result="shape"/>
</filter>
<filter id="filter1_d_814_19179" x="766.3" y="360.3" width="18.4" height="18.4" filterUnits="userSpaceOnUse" color-interpolation-filters="sRGB">
<feFlood flood-opacity="0" result="BackgroundImageFix"/>
<feColorMatrix in="SourceAlpha" type="matrix" values="0 0 0 0 0 0 0 0 0 0 0 0 0 0 0 0 0 0 127 0" result="hardAlpha"/>
<feOffset/>
<feGaussianBlur stdDeviation="3.35"/>
<feComposite in2="hardAlpha" operator="out"/>
<feColorMatrix type="matrix" values="0 0 0 0 0.976471 0 0 0 0 0.603922 0 0 0 0 0.109804 0 0 0 1 0"/>
<feBlend mode="normal" in2="BackgroundImageFix" result="effect1_dropShadow_814_19179"/>
<feBlend mode="normal" in="SourceGraphic" in2="effect1_dropShadow_814_19179" result="shape"/>
</filter>
<filter id="filter2_d_814_19179" x="861.3" y="360.3" width="18.4" height="18.4" filterUnits="userSpaceOnUse" color-interpolation-filters="sRGB">
<feFlood flood-opacity="0" result="BackgroundImageFix"/>
<feColorMatrix in="SourceAlpha" type="matrix" values="0 0 0 0 0 0 0 0 0 0 0 0 0 0 0 0 0 0 127 0" result="hardAlpha"/>
<feOffset/>
<feGaussianBlur stdDeviation="3.35"/>
<feComposite in2="hardAlpha" operator="out"/>
<feColorMatrix type="matrix" values="0 0 0 0 0.976471 0 0 0 0 0.603922 0 0 0 0 0.109804 0 0 0 1 0"/>
<feBlend mode="normal" in2="BackgroundImageFix" result="effect1_dropShadow_814_19179"/>
<feBlend mode="normal" in="SourceGraphic" in2="effect1_dropShadow_814_19179" result="shape"/>
</filter>
<filter id="filter3_d_814_19179" x="956.3" y="360.3" width="18.4" height="18.4" filterUnits="userSpaceOnUse" color-interpolation-filters="sRGB">
<feFlood flood-opacity="0" result="BackgroundImageFix"/>
<feColorMatrix in="SourceAlpha" type="matrix" values="0 0 0 0 0 0 0 0 0 0 0 0 0 0 0 0 0 0 127 0" result="hardAlpha"/>
<feOffset/>
<feGaussianBlur stdDeviation="3.35"/>
<feComposite in2="hardAlpha" operator="out"/>
<feColorMatrix type="matrix" values="0 0 0 0 0.976471 0 0 0 0 0.603922 0 0 0 0 0.109804 0 0 0 1 0"/>
<feBlend mode="normal" in2="BackgroundImageFix" result="effect1_dropShadow_814_19179"/>
<feBlend mode="normal" in="SourceGraphic" in2="effect1_dropShadow_814_19179" result="shape"/>
</filter>
<filter id="filter4_d_814_19179" x="273.627" y="427.4" width="36.4734" height="24.1219" filterUnits="userSpaceOnUse" color-interpolation-filters="sRGB">
<feFlood flood-opacity="0" result="BackgroundImageFix"/>
<feColorMatrix in="SourceAlpha" type="matrix" values="0 0 0 0 0 0 0 0 0 0 0 0 0 0 0 0 0 0 127 0" result="hardAlpha"/>
<feOffset/>
<feGaussianBlur stdDeviation="1.05"/>
<feComposite in2="hardAlpha" operator="out"/>
<feColorMatrix type="matrix" values="0 0 0 0 1 0 0 0 0 0.640402 0 0 0 0 0.163462 0 0 0 1 0"/>
<feBlend mode="normal" in2="BackgroundImageFix" result="effect1_dropShadow_814_19179"/>
<feBlend mode="normal" in="SourceGraphic" in2="effect1_dropShadow_814_19179" result="shape"/>
</filter>
<filter id="filter5_d_814_19179" x="310.695" y="326.447" width="32.4046" height="16.6531" filterUnits="userSpaceOnUse" color-interpolation-filters="sRGB">
<feFlood flood-opacity="0" result="BackgroundImageFix"/>
<feColorMatrix in="SourceAlpha" type="matrix" values="0 0 0 0 0 0 0 0 0 0 0 0 0 0 0 0 0 0 127 0" result="hardAlpha"/>
<feOffset/>
<feGaussianBlur stdDeviation="1.05"/>
<feComposite in2="hardAlpha" operator="out"/>
<feColorMatrix type="matrix" values="0 0 0 0 1 0 0 0 0 0.640402 0 0 0 0 0.163462 0 0 0 1 0"/>
<feBlend mode="normal" in2="BackgroundImageFix" result="effect1_dropShadow_814_19179"/>
<feBlend mode="normal" in="SourceGraphic" in2="effect1_dropShadow_814_19179" result="shape"/>
</filter>
<filter id="filter6_d_814_19179" x="218.9" y="327.9" width="35.2" height="17.2" filterUnits="userSpaceOnUse" color-interpolation-filters="sRGB">
<feFlood flood-opacity="0" result="BackgroundImageFix"/>
<feColorMatrix in="SourceAlpha" type="matrix" values="0 0 0 0 0 0 0 0 0 0 0 0 0 0 0 0 0 0 127 0" result="hardAlpha"/>
<feOffset/>
<feGaussianBlur stdDeviation="1.05"/>
<feComposite in2="hardAlpha" operator="out"/>
<feColorMatrix type="matrix" values="0 0 0 0 1 0 0 0 0 0.640402 0 0 0 0 0.163462 0 0 0 1 0"/>
<feBlend mode="normal" in2="BackgroundImageFix" result="effect1_dropShadow_814_19179"/>
<feBlend mode="normal" in="SourceGraphic" in2="effect1_dropShadow_814_19179" result="shape"/>
</filter>
<radialGradient id="paint0_radial_814_19179" cx="0" cy="0" r="1" gradientUnits="userSpaceOnUse" gradientTransform="translate(619.5 367.5) rotate(90) scale(233 207.98)">
<stop stop-color="#FF7031" stop-opacity="0"/>
<stop offset="1" stop-color="#FF7031"/>
</radialGradient>
<linearGradient id="paint1_linear_814_19179" x1="188" y1="851.127" x2="-391.5" y2="856" gradientUnits="userSpaceOnUse">
<stop stop-color="#FF7031"/>
<stop offset="0.343946" stop-color="#FF7031" stop-opacity="0"/>
</linearGradient>
<linearGradient id="paint2_linear_814_19179" x1="566.068" y1="371.641" x2="-302.831" y2="371.641" gradientUnits="userSpaceOnUse">
<stop stop-color="#FF7031"/>
<stop offset="1" stop-color="#FF7031" stop-opacity="0"/>
</linearGradient>
</defs>
</svg>
