<svg width="19" height="24" viewBox="0 0 19 24" fill="none" xmlns="http://www.w3.org/2000/svg">
<mask id="path-1-inside-1_173_2335" fill="white">
<path fill-rule="evenodd" clip-rule="evenodd" d="M10.6109 23.4607C13.0156 20.4435 18.5 13.1309 18.5 9.02335C18.5 4.04171 14.4688 0 9.5 0C4.53125 0 0.5 4.04171 0.5 9.02335C0.5 13.1309 5.98438 20.4435 8.38906 23.4607C8.96562 24.1798 10.0344 24.1798 10.6109 23.4607ZM9.50167 12.0001C11.6319 12.0001 13.3588 10.2732 13.3588 8.14291C13.3588 6.01267 11.6319 4.28577 9.50167 4.28577C7.37143 4.28577 5.64453 6.01267 5.64453 8.14291C5.64453 10.2732 7.37143 12.0001 9.50167 12.0001Z"/>
</mask>
<path d="M10.6109 23.4607L11.3911 24.0863L11.393 24.084L10.6109 23.4607ZM8.38906 23.4607L7.60705 24.084L7.60889 24.0863L8.38906 23.4607ZM18.5 9.02335H17.5C17.5 9.85391 17.2158 10.9364 16.6839 12.1997C16.1589 13.4465 15.426 14.7926 14.6054 16.1271C12.9646 18.7956 11.0209 21.3419 9.82892 22.8375L10.6109 23.4607L11.393 24.084C12.6057 22.5624 14.6065 19.9437 16.3091 17.1747C17.1602 15.7905 17.9487 14.3496 18.5271 12.9758C19.0987 11.6185 19.5 10.2465 19.5 9.02335H18.5ZM9.5 0V1C13.914 1 17.5 4.59155 17.5 9.02335H18.5H19.5C19.5 3.49187 15.0235 -1 9.5 -1V0ZM0.5 9.02335H1.5C1.5 4.59155 5.08598 1 9.5 1V0V-1C3.97652 -1 -0.5 3.49187 -0.5 9.02335H0.5ZM8.38906 23.4607L9.17108 22.8375C7.97909 21.3419 6.03542 18.7956 4.39463 16.1271C3.57404 14.7926 2.84113 13.4465 2.31614 12.1997C1.78421 10.9364 1.5 9.85391 1.5 9.02335H0.5H-0.5C-0.5 10.2465 -0.0986595 11.6185 0.472876 12.9758C1.05135 14.3496 1.83983 15.7905 2.69092 17.1747C4.39349 19.9437 6.39435 22.5624 7.60705 24.084L8.38906 23.4607ZM10.6109 23.4607L9.83077 22.8351C9.65452 23.055 9.34548 23.055 9.16923 22.8351L8.38906 23.4607L7.60889 24.0863C8.58577 25.3046 10.4142 25.3046 11.3911 24.0863L10.6109 23.4607ZM13.3588 8.14291H12.3588C12.3588 9.72087 11.0796 11.0001 9.50167 11.0001V12.0001V13.0001C12.1842 13.0001 14.3588 10.8254 14.3588 8.14291H13.3588ZM9.50167 4.28577V5.28577C11.0796 5.28577 12.3588 6.56495 12.3588 8.14291H13.3588H14.3588C14.3588 5.46038 12.1842 3.28577 9.50167 3.28577V4.28577ZM5.64453 8.14291H6.64453C6.64453 6.56495 7.92372 5.28577 9.50167 5.28577V4.28577V3.28577C6.81915 3.28577 4.64453 5.46038 4.64453 8.14291H5.64453ZM9.50167 12.0001V11.0001C7.92372 11.0001 6.64453 9.72087 6.64453 8.14291H5.64453H4.64453C4.64453 10.8254 6.81915 13.0001 9.50167 13.0001V12.0001Z" fill="#20B2FF" mask="url(#path-1-inside-1_173_2335)"/>
</svg>
