<svg width="69" height="69" viewBox="0 0 69 69" fill="none" xmlns="http://www.w3.org/2000/svg">
<rect width="69" height="69" rx="34.5" fill="white" fill-opacity="0.09"/>
<path d="M26.3475 42.6531V46.0937C26.3475 46.3763 26.4395 46.6097 26.6235 46.7937C26.8076 46.9777 27.0402 47.0697 27.3214 47.0697C27.6026 47.0697 27.8359 46.9777 28.0214 46.7937C28.2069 46.6097 28.2997 46.3763 28.2997 46.0937V42.6531H31.7402C32.0229 42.6531 32.2562 42.5611 32.4403 42.377C32.6243 42.193 32.7163 41.9604 32.7163 41.6792C32.7163 41.398 32.6243 41.1647 32.4403 40.9792C32.2562 40.7937 32.0229 40.7009 31.7402 40.7009H28.2997V37.2603C28.2997 36.9777 28.2076 36.7443 28.0236 36.5603C27.8396 36.3763 27.607 36.2843 27.3258 36.2843C27.0446 36.2843 26.8112 36.3763 26.6257 36.5603C26.4402 36.7443 26.3475 36.9777 26.3475 37.2603V40.7009H22.9069C22.6242 40.7009 22.3909 40.7929 22.2069 40.977C22.0228 41.161 21.9308 41.3936 21.9308 41.6748C21.9308 41.956 22.0228 42.1893 22.2069 42.3748C22.3909 42.5603 22.6242 42.6531 22.9069 42.6531H26.3475ZM38.3652 45.4135H46.0944C46.3771 45.4135 46.6104 45.3215 46.7944 45.1375C46.9785 44.9534 47.0705 44.7208 47.0705 44.4396C47.0705 44.1584 46.9785 43.9251 46.7944 43.7396C46.6104 43.5541 46.3771 43.4613 46.0944 43.4613H38.3652C38.0826 43.4613 37.8492 43.5533 37.6652 43.7374C37.4812 43.9214 37.3891 44.154 37.3891 44.4352C37.3891 44.7164 37.4812 44.9498 37.6652 45.1353C37.8492 45.3208 38.0826 45.4135 38.3652 45.4135ZM38.3652 39.8927H46.0944C46.3771 39.8927 46.6104 39.8007 46.7944 39.6166C46.9785 39.4326 47.0705 39.2 47.0705 38.9188C47.0705 38.6376 46.9785 38.4043 46.7944 38.2188C46.6104 38.0333 46.3771 37.9405 46.0944 37.9405H38.3652C38.0826 37.9405 37.8492 38.0325 37.6652 38.2165C37.4812 38.4006 37.3891 38.6332 37.3891 38.9144C37.3891 39.1956 37.4812 39.4289 37.6652 39.6144C37.8492 39.7999 38.0826 39.8927 38.3652 39.8927ZM23.459 27.6364H31.1882C31.4708 27.6364 31.7042 27.5444 31.8882 27.3604C32.0722 27.1763 32.1642 26.9437 32.1642 26.6625C32.1642 26.3813 32.0722 26.148 31.8882 25.9625C31.7042 25.777 31.4708 25.6843 31.1882 25.6843H23.459C23.1763 25.6843 22.943 25.7763 22.7589 25.9603C22.5749 26.1443 22.4829 26.3769 22.4829 26.6581C22.4829 26.9393 22.5749 27.1727 22.7589 27.3582C22.943 27.5437 23.1763 27.6364 23.459 27.6364ZM20.4027 52.1666C19.3853 52.1666 18.5366 51.8265 17.8564 51.1463C17.1763 50.4662 16.8355 49.6167 16.834 48.5979V20.4019C16.834 19.3846 17.1748 18.5359 17.8564 17.8557C18.5381 17.1755 19.3868 16.8347 20.4027 16.8333H48.6009C49.6167 16.8333 50.4654 17.1741 51.1471 17.8557C51.8287 18.5373 52.1688 19.3861 52.1673 20.4019V48.6001C52.1673 49.616 51.8272 50.4647 51.1471 51.1463C50.4669 51.828 49.6174 52.1681 48.5987 52.1666H20.4027ZM42.2298 28.0715L44.6303 30.4697C44.8202 30.6596 45.044 30.7619 45.3016 30.7767C45.5592 30.7899 45.8007 30.6832 46.0259 30.4565C46.2276 30.2562 46.3307 30.0325 46.3351 29.7851C46.3381 29.5363 46.235 29.303 46.0259 29.0851L43.6144 26.6603L46.0149 24.2621C46.2033 24.0707 46.3049 23.8469 46.3196 23.5908C46.3344 23.3331 46.2328 23.0953 46.0149 22.8775C45.797 22.6596 45.5659 22.5506 45.3215 22.5506C45.0771 22.5506 44.8467 22.6596 44.6303 22.8775L42.2298 25.2757L39.8316 22.8775C39.6402 22.6861 39.4157 22.5838 39.158 22.5705C38.9004 22.5573 38.6626 22.6596 38.4447 22.8775C38.2268 23.0953 38.1186 23.3258 38.1201 23.5687C38.1216 23.8116 38.2305 24.0427 38.4469 24.2621L40.8452 26.6603L38.4337 29.0851C38.2526 29.275 38.1547 29.4988 38.14 29.7564C38.1253 30.0141 38.2276 30.2518 38.4469 30.4697C38.6663 30.6876 38.8967 30.7965 39.1382 30.7965C39.3796 30.7965 39.6107 30.6876 39.8316 30.4697L42.2298 28.0715Z" fill="#F07000"/>
</svg>
