<svg width="69" height="69" viewBox="0 0 69 69" fill="none" xmlns="http://www.w3.org/2000/svg">
<rect width="69" height="69" rx="34.5" fill="white" fill-opacity="0.09"/>
<path fill-rule="evenodd" clip-rule="evenodd" d="M35 56C37.8891 56 40.7499 55.4439 43.419 54.3634C46.0882 53.2829 48.5135 51.6993 50.5563 49.7028C52.5992 47.7063 54.2197 45.3362 55.3254 42.7277C56.431 40.1192 57 37.3234 57 34.5C57 31.6766 56.431 28.8808 55.3254 26.2723C54.2197 23.6638 52.5992 21.2937 50.5563 19.2972C48.5135 17.3007 46.0882 15.7171 43.419 14.6366C40.7499 13.5561 37.8891 13 35 13C29.1652 13 23.5695 15.2652 19.4437 19.2972C15.3179 23.3292 13 28.7978 13 34.5C13 40.2022 15.3179 45.6708 19.4437 49.7028C23.5695 53.7348 29.1652 56 35 56ZM34.4329 43.1956L46.6551 28.8622L42.9004 25.8044L32.3893 38.1287L26.9504 32.8111L23.494 36.1889L30.8273 43.3556L32.7193 45.2046L34.4329 43.1956Z" fill="#F07000"/>
</svg>
