<svg width="32" height="33" viewBox="0 0 32 33" fill="none" xmlns="http://www.w3.org/2000/svg">
<path d="M27.8031 23.0175V26.6012C27.8045 26.9339 27.7362 27.2632 27.6027 27.568C27.4691 27.8728 27.2733 28.1464 27.0277 28.3714C26.7821 28.5963 26.4921 28.7675 26.1763 28.8741C25.8606 28.9807 25.526 29.0202 25.194 28.9903C21.5111 28.5909 17.9734 27.3348 14.8652 25.323C11.9734 23.4889 9.52162 21.0419 7.68405 18.1556C5.66135 15.0392 4.40257 11.4911 4.00971 7.79872C3.97981 7.46838 4.01914 7.13545 4.12521 6.82112C4.23128 6.50678 4.40177 6.21794 4.62581 5.97297C4.84986 5.728 5.12255 5.53228 5.42654 5.39827C5.73052 5.26425 6.05913 5.19488 6.39145 5.19457H9.98201C10.5628 5.18886 11.126 5.39415 11.5664 5.77218C12.0068 6.1502 12.2944 6.67517 12.3757 7.24922C12.5273 8.39608 12.8083 9.52215 13.2135 10.6059C13.3745 11.0335 13.4094 11.4982 13.3139 11.9449C13.2185 12.3916 12.9967 12.8017 12.6749 13.1265L11.1549 14.6436C12.8587 17.6342 15.3397 20.1104 18.336 21.811L19.856 20.2939C20.1815 19.9727 20.5923 19.7514 21.0399 19.6561C21.4875 19.5608 21.953 19.5956 22.3814 19.7563C23.4673 20.1607 24.5955 20.4413 25.7446 20.5925C26.3259 20.6744 26.8569 20.9667 27.2365 21.4138C27.616 21.8609 27.8177 22.4316 27.8031 23.0175Z" stroke="white" stroke-width="1.8" stroke-linecap="round" stroke-linejoin="round"/>
<path d="M18.4844 8.77826C19.6534 9.0059 20.7277 9.57654 21.5699 10.4171C22.4121 11.2577 22.9839 12.33 23.2119 13.4968M18.4844 4C20.9131 4.2693 23.1779 5.35485 24.907 7.0784C26.636 8.80196 27.7265 11.0611 27.9994 13.4848" stroke="white" stroke-width="1.8" stroke-linecap="round" stroke-linejoin="round"/>
</svg>
