<svg width="20" height="29" viewBox="0 0 20 29" fill="none" xmlns="http://www.w3.org/2000/svg">
<path d="M19 19.3511V10.6489C19 10.1881 18.7517 9.75432 18.3379 9.52389L10.6552 5.17282C10.2414 4.94239 9.74483 4.94239 9.33103 5.17282L1.66207 9.52389C1.24828 9.75432 1 10.1881 1 10.6489V19.3511C1 19.8119 1.24828 20.2457 1.66207 20.4761L9.33103 24.8272C9.74483 25.0576 10.2414 25.0576 10.6552 24.8272L18.3241 20.4761C18.7379 20.2457 18.9862 19.8119 18.9862 19.3511H19Z" fill="white" stroke="#E5530A" stroke-miterlimit="10"/>
<path d="M15 16.8931V12.1069C15 11.8534 14.8621 11.6149 14.6322 11.4881L10.364 9.09505C10.1341 8.96832 9.85824 8.96832 9.62835 9.09505L5.36782 11.4881C5.13793 11.6149 5 11.8534 5 12.1069V16.8931C5 17.1466 5.13793 17.3851 5.36782 17.5119L9.62835 19.9049C9.85824 20.0317 10.1341 20.0317 10.364 19.9049L14.6245 17.5119C14.8544 17.3851 14.9923 17.1466 14.9923 16.8931H15Z" fill="#E5530A"/>
</svg>
